<?xml version="1.0" encoding="UTF-8"?>
<svg version="1.1" xmlns="http://www.w3.org/2000/svg" width="639" height="150">
<path d="M0 0 C4.29 0 8.58 0 13 0 C17.97112567 9.51227536 21.96525019 19.18246765 25.8125 29.1875 C26.68707571 31.45129172 27.5633171 33.71440782 28.44255066 35.97639465 C28.98417951 37.37082637 29.5229558 38.76637023 30.05854797 40.16313171 C31.12647725 43.32157849 31.12647725 43.32157849 33 46 C33.22106415 45.46795456 33.4421283 44.93590912 33.66989136 44.38774109 C35.96962277 38.85463293 38.27379566 33.32338992 40.58056641 27.79321289 C41.44108501 25.72858499 42.30046677 23.66348289 43.15869141 21.59790039 C44.39187427 18.63042047 45.6291241 15.66466519 46.8671875 12.69921875 C47.25059296 11.7741301 47.63399841 10.84904144 48.02902222 9.8959198 C48.38924469 9.03525406 48.74946716 8.17458832 49.12060547 7.2878418 C49.43593231 6.53061325 49.75125916 5.7733847 50.07614136 4.99320984 C51 3 51 3 53 0 C55.78515625 -0.328125 55.78515625 -0.328125 59.0625 -0.25 C60.14660156 -0.23453125 61.23070312 -0.2190625 62.34765625 -0.203125 C65 0 65 0 66 1 C66.09386381 2.8718094 66.11743804 4.7471806 66.11352539 6.62133789 C66.11341209 8.42309227 66.11341209 8.42309227 66.11329651 10.26124573 C66.10813522 11.5685112 66.10297394 12.87577667 66.09765625 14.22265625 C66.09579198 15.56644132 66.09436812 16.91022707 66.09336853 18.25401306 C66.08954402 21.79682277 66.07971432 25.3395917 66.06866455 28.88238525 C66.05844899 32.49515227 66.0538706 36.10792584 66.04882812 39.72070312 C66.03809198 46.8138188 66.02101636 53.90690674 66 61 C63.36 61 60.72 61 58 61 C57.67 44.5 57.34 28 57 11 C51.58178199 24.46043997 51.58178199 24.46043997 46.17089844 37.92382812 C45.48398675 39.62640813 44.79682838 41.32888864 44.109375 43.03125 C43.58947998 44.3301416 43.58947998 44.3301416 43.05908203 45.65527344 C40.93375406 50.90748645 38.59918476 55.96471659 36 61 C33.36 61 30.72 61 28 61 C18.595 37.24 18.595 37.24 9 13 C8.67 28.84 8.34 44.68 8 61 C5.36 61 2.72 61 0 61 C-1.72853755 59.27146245 -1.1275616 56.94878953 -1.12939453 54.59399414 C-1.13412277 52.86198509 -1.13412277 52.86198509 -1.13894653 51.09498596 C-1.1369223 49.83774216 -1.13489807 48.58049835 -1.1328125 47.28515625 C-1.13376923 46.00394394 -1.13472595 44.72273163 -1.13571167 43.4026947 C-1.13718848 40.68650105 -1.13503498 37.97034023 -1.13037109 35.25415039 C-1.12467947 31.76915142 -1.12794929 28.28422956 -1.13394356 24.79923344 C-1.13842309 21.48203483 -1.13528772 18.16485704 -1.1328125 14.84765625 C-1.13483673 13.59243668 -1.13686096 12.3372171 -1.13894653 11.04396057 C-1.13579437 9.88613571 -1.13264221 8.72831085 -1.12939453 7.53540039 C-1.12859894 6.51249405 -1.12780334 5.48958771 -1.12698364 4.4356842 C-1 2 -1 2 0 0 Z " fill="#3E47CB" transform="translate(40,42)"/>
<path d="M0 0 C1.51400391 0.01740234 1.51400391 0.01740234 3.05859375 0.03515625 C4.07050781 0.04417969 5.08242188 0.05320313 6.125 0.0625 C7.29869141 0.07990234 7.29869141 0.07990234 8.49609375 0.09765625 C11.23980639 7.60605422 13.97834396 15.1163104 16.71027374 22.62900257 C17.97894612 26.11729135 19.24939906 29.60491 20.52392578 33.09106445 C21.7535783 36.45467945 22.97854727 39.81996573 24.20027161 43.18646812 C24.66747736 44.4712979 25.13637464 45.75551386 25.60697937 47.03910255 C26.26523189 48.83539434 26.91694836 50.63407722 27.56835938 52.43286133 C27.94142212 53.45656326 28.31448486 54.4802652 28.69885254 55.5349884 C29.49609375 58.09765625 29.49609375 58.09765625 29.49609375 61.09765625 C26.52609375 61.09765625 23.55609375 61.09765625 20.49609375 61.09765625 C19.6822758 59.16070947 18.87008459 57.22307914 18.05859375 55.28515625 C17.60613281 54.20621094 17.15367187 53.12726563 16.6875 52.015625 C15.89234362 50.06814365 15.16129727 48.09326682 14.49609375 46.09765625 C6.57609375 46.09765625 -1.34390625 46.09765625 -9.50390625 46.09765625 C-11.10750927 50.65893487 -11.10750927 50.65893487 -12.70483398 55.22241211 C-14.39279514 59.98654514 -14.39279514 59.98654514 -15.50390625 61.09765625 C-18.17449476 61.23880786 -20.82822863 61.14012732 -23.50390625 61.09765625 C-22.91580787 54.29199713 -20.60865026 48.24484749 -18.28515625 41.85546875 C-17.86721802 40.69135468 -17.44927979 39.5272406 -17.01867676 38.32785034 C-16.13751216 35.87758681 -15.25312656 33.42847952 -14.36572266 30.98046875 C-13.00201781 27.21744527 -11.64865539 23.45091492 -10.296875 19.68359375 C-9.43940121 17.30316951 -8.58134864 14.92295367 -7.72265625 12.54296875 C-7.31535278 11.41077911 -6.90804932 10.27858948 -6.48840332 9.11209106 C-5.92276672 7.55444534 -5.92276672 7.55444534 -5.34570312 5.96533203 C-5.01340698 5.04712677 -4.68111084 4.12892151 -4.33874512 3.18289185 C-3.11306083 0.12141423 -3.11306083 0.12141423 0 0 Z M1.49609375 10.09765625 C-2.95890625 23.95765625 -2.95890625 23.95765625 -7.50390625 38.09765625 C-0.90390625 38.09765625 5.69609375 38.09765625 12.49609375 38.09765625 C11.25787001 34.26833467 10.01526281 30.44091165 8.76074219 26.61694336 C8.33518341 25.31509083 7.91231888 24.01235441 7.4921875 22.70874023 C6.88857162 20.83738863 6.27451605 18.96941447 5.66015625 17.1015625 C5.2935791 15.97564697 4.92700195 14.84973145 4.54931641 13.68969727 C3.77288134 10.9609314 3.77288134 10.9609314 1.49609375 10.09765625 Z " fill="#3E47CB" transform="translate(368.50390625,41.90234375)"/>
<path d="M0 0 C2.64 0 5.28 0 8 0 C10.00503509 2.00503509 9.25588663 6.00025444 9.31640625 8.75390625 C9.33718735 9.52935287 9.35796844 10.3047995 9.37937927 11.10374451 C9.44495802 13.58990308 9.50379799 16.07617045 9.5625 18.5625 C9.60567733 20.24415204 9.64929136 21.92579294 9.69335938 23.60742188 C9.80064779 27.73816871 9.90189132 31.86902536 10 36 C10.74765625 35.18015625 11.4953125 34.3603125 12.265625 33.515625 C13.26036773 32.42703861 14.25516213 31.33849945 15.25 30.25 C15.74113281 29.71117188 16.23226562 29.17234375 16.73828125 28.6171875 C24.55201741 20.0741693 24.55201741 20.0741693 27.359375 19.609375 C28.14828125 19.65578125 28.9371875 19.7021875 29.75 19.75 C30.54921875 19.78609375 31.3484375 19.8221875 32.171875 19.859375 C32.77515625 19.90578125 33.3784375 19.9521875 34 20 C33.41889329 23.42754467 32.31446376 25.04538661 29.83984375 27.453125 C29.21142578 28.071875 28.58300781 28.690625 27.93554688 29.328125 C27.27619141 29.96234375 26.61683594 30.5965625 25.9375 31.25 C24.94266602 32.22453125 24.94266602 32.22453125 23.92773438 33.21875 C22.29170683 34.8194676 20.64909088 36.41276193 19 38 C20.29451642 41.62837633 21.81911838 44.31131373 24.2578125 47.28515625 C24.88300781 48.06310547 25.50820312 48.84105469 26.15234375 49.64257812 C27.47248182 51.26203463 28.79542346 52.8792096 30.12109375 54.49414062 C30.74371094 55.27080078 31.36632812 56.04746094 32.0078125 56.84765625 C32.58160645 57.54898682 33.15540039 58.25031738 33.74658203 58.97290039 C35 61 35 61 35 65 C31.84642916 65.57226961 29.14219135 65.69819579 26 65 C22.91365818 62.49919153 20.80835414 59.44088649 18.5625 56.1875 C17.95212891 55.35412109 17.34175781 54.52074219 16.71289062 53.66210938 C14.4004438 50.4879128 12.17837641 47.26756461 10 44 C9.97494385 44.60062256 9.9498877 45.20124512 9.92407227 45.82006836 C9.8084472 48.52611437 9.68557064 51.23178283 9.5625 53.9375 C9.50352539 55.35579102 9.50352539 55.35579102 9.44335938 56.80273438 C9.40146484 57.70185547 9.35957031 58.60097656 9.31640625 59.52734375 C9.26141968 60.77632446 9.26141968 60.77632446 9.20532227 62.05053711 C9 64 9 64 8 65 C5.36 65 2.72 65 0 65 C0 43.55 0 22.1 0 0 Z " fill="#3E47CB" transform="translate(200,38)"/>
<path d="M0 0 C1.29550781 -0.02578125 2.59101563 -0.0515625 3.92578125 -0.078125 C9.49844482 0.40796403 12.5999786 2.11304581 16.4375 6.125 C21.20195611 12.74230016 22.16647112 19.94330406 21.44140625 27.9765625 C20.02310185 36.28556703 16.35745042 41.28301565 9.6875 46.25 C3.66981364 48.25589545 -4.58338116 48.36570385 -10.71484375 46.53125 C-16.15275915 43.58025871 -19.47351055 39.04086038 -21.3125 33.25 C-21.64679448 30.30872121 -21.68261461 27.39560313 -21.6875 24.4375 C-21.72423828 23.28411133 -21.72423828 23.28411133 -21.76171875 22.10742188 C-21.79571485 15.39319273 -19.96273597 10.25360076 -15.49609375 5.19140625 C-14.91988281 4.73636719 -14.34367188 4.28132813 -13.75 3.8125 C-13.17121094 3.33941406 -12.59242188 2.86632813 -11.99609375 2.37890625 C-8.19647046 -0.16886899 -4.43802799 0.05267689 0 0 Z M-9.3125 10.25 C-13.32975471 16.27588206 -13.91228921 22.98953988 -12.6875 30 C-11.61187633 34.21408725 -9.74035519 36.50771585 -6.3125 39.25 C-3.113957 40.8492715 0.20851629 40.61127908 3.6875 40.25 C7.08365986 38.89153606 8.37762719 37.70374233 10.4375 34.6875 C13.09204797 27.38749308 13.40637876 20.54153851 10.6875 13.25 C8.47935056 10.65542441 6.73141181 8.7719559 3.6875 7.25 C-1.56529338 6.90555453 -5.13884624 6.67258249 -9.3125 10.25 Z " fill="#3E47CB" transform="translate(259.3125,56.75)"/>
<path d="M0 0 C4.55528114 2.66568304 7.41223189 5.74258847 8.98046875 10.875 C9.48812784 13.37286244 9.55440175 15.68657015 9.546875 18.234375 C9.55074219 19.55501953 9.55074219 19.55501953 9.5546875 20.90234375 C9.421875 23.046875 9.421875 23.046875 8.421875 24.046875 C6.20332236 24.13471042 3.98199004 24.15382109 1.76171875 24.14453125 C0.76501915 24.14240883 0.76501915 24.14240883 -0.2518158 24.14024353 C-2.38146399 24.13463018 -4.51100839 24.12207554 -6.640625 24.109375 C-8.08137869 24.10436171 -9.52213403 24.09979851 -10.96289062 24.09570312 C-14.50133602 24.08465645 -18.03972039 24.06738292 -21.578125 24.046875 C-20.01640389 30.86960956 -20.01640389 30.86960956 -16.28515625 36.6484375 C-9.19863165 40.30929725 0.09197409 38.34645176 7.421875 36.046875 C7.421875 38.356875 7.421875 40.666875 7.421875 43.046875 C-0.38192332 46.94877416 -10.58220678 47.82556844 -19.02734375 45.3203125 C-24.54337225 42.37683525 -27.55328569 37.7769182 -29.578125 32.046875 C-31.2669799 23.18038678 -30.85784483 14.64800017 -26.390625 6.671875 C-20.29114984 -1.98657536 -9.80534652 -3.6250069 0 0 Z M-17.578125 8.046875 C-20.23294909 11.52561001 -20.68901128 13.60130642 -21.578125 18.046875 C-13.988125 18.046875 -6.398125 18.046875 1.421875 18.046875 C0.06634864 10.53135091 0.06634864 10.53135091 -4.578125 6.046875 C-9.90787026 4.56639021 -12.99782859 4.92394563 -17.578125 8.046875 Z " fill="#3E47CB" transform="translate(497.578125,57.953125)"/>
<path d="M0 0 C1.29550781 -0.03738281 2.59101563 -0.07476562 3.92578125 -0.11328125 C8.35221841 0.38773812 10.34097828 1.40059149 13.6875 4.3125 C16.80264036 9.25332821 17.09597374 13.13025817 16.98046875 18.7734375 C16.97622391 19.56400543 16.97197906 20.35457336 16.96760559 21.1690979 C16.95091301 23.6755894 16.91327983 26.18125461 16.875 28.6875 C16.85994092 30.39451958 16.84625466 32.10155185 16.83398438 33.80859375 C16.80104056 37.97687725 16.74932493 42.14454889 16.6875 46.3125 C14.3775 46.3125 12.0675 46.3125 9.6875 46.3125 C9.3575 45.3225 9.0275 44.3325 8.6875 43.3125 C7.78 43.9725 6.8725 44.6325 5.9375 45.3125 C0.80242068 48.24085481 -4.57259518 48.1086033 -10.3125 47.3125 C-13.51220625 46.10877174 -15.59925151 44.46065611 -17.43359375 41.5078125 C-19.14241537 37.23955582 -18.93860015 32.81259484 -18.3125 28.3125 C-16.45631976 24.18581358 -12.90192602 21.380267 -8.69140625 19.76953125 C-3.01750883 18.67947214 2.93512961 19.11261068 8.6875 19.3125 C8.43195946 17.85140937 8.15749628 16.39361904 7.875 14.9375 C7.72417969 14.12539062 7.57335937 13.31328125 7.41796875 12.4765625 C6.81205058 9.95429359 6.81205058 9.95429359 3.6875 8.3125 C-2.44360729 7.49994361 -6.91973359 8.23091919 -12.3125 11.3125 C-13.6325 11.3125 -14.9525 11.3125 -16.3125 11.3125 C-16.6875 8.5625 -16.6875 8.5625 -16.3125 5.3125 C-10.99677931 0.94179632 -6.7423995 0.12671176 0 0 Z M-8.125 28.625 C-9.71232093 30.88066658 -10.11156098 32.56633336 -10.3125 35.3125 C-9.96356834 37.59414024 -9.96356834 37.59414024 -8.3125 39.3125 C-4.31985057 41.07847955 -2.28729296 41.65654457 1.875 40.1875 C5.73594903 37.71448354 5.73594903 37.71448354 8.6875 34.3125 C9.01251762 31.28249699 8.92090963 28.34682523 8.6875 25.3125 C2.59026328 25.06861053 -2.95525835 24.88139398 -8.125 28.625 Z " fill="#3E47CB" transform="translate(136.3125,56.6875)"/>
<path d="M0 0 C2.97 0 5.94 0 9 0 C10.41246473 3.87539038 11.81806122 7.75319752 13.2175293 11.63330078 C13.69386895 12.95102845 14.17203152 14.26809873 14.65209961 15.58447266 C15.34457018 17.4842725 16.03030015 19.3863942 16.71484375 21.2890625 C17.33540649 23.00150146 17.33540649 23.00150146 17.96850586 24.74853516 C18.94875711 27.8384727 19.55617996 30.79345327 20 34 C20.66 34 21.32 34 22 34 C22.24621094 32.7728125 22.49242187 31.545625 22.74609375 30.28125 C24.0952526 24.21419556 26.07222524 18.38181377 28.0625 12.5 C28.42666016 11.40429688 28.79082031 10.30859375 29.16601562 9.1796875 C31.86631944 1.13368056 31.86631944 1.13368056 33 0 C35.67058851 -0.14115161 38.32432238 -0.04247107 41 0 C40.40861506 5.51611582 39.01700746 10.2976541 37.09375 15.48828125 C36.80898804 16.27269089 36.52422607 17.05710052 36.23083496 17.86528015 C35.32689323 20.35005174 34.41346027 22.83121412 33.5 25.3125 C32.88612211 26.99782967 32.27283495 28.68337464 31.66015625 30.36914062 C27.20550818 42.58898365 27.20550818 42.58898365 26 45 C22.7 45 19.4 45 16 45 C13.26078401 39.7183338 10.94324151 34.49996356 8.984375 28.88671875 C8.72368225 28.15048782 8.4629895 27.4142569 8.19439697 26.65571594 C7.65080781 25.11634721 7.10979406 23.57606675 6.57128906 22.03491211 C5.74512178 19.67355704 4.90827323 17.31617671 4.0703125 14.95898438 C3.54102985 13.45595327 3.01236167 11.9527056 2.484375 10.44921875 C2.23443787 9.74609055 1.98450073 9.04296234 1.72698975 8.31852722 C0.71694902 5.40995088 0 3.10344699 0 0 Z " fill="#3E47CB" transform="translate(422,58)"/>
<path d="M0 0 C0.69867187 0.55300781 1.39734375 1.10601562 2.1171875 1.67578125 C2.4296875 4.86328125 2.4296875 4.86328125 2.1171875 7.67578125 C0.84875 7.45921875 0.84875 7.45921875 -0.4453125 7.23828125 C-1.5796875 7.05265625 -2.7140625 6.86703125 -3.8828125 6.67578125 C-5.0584375 6.46953125 -6.2340625 6.26328125 -7.4453125 6.05078125 C-10.62573059 5.70382655 -12.82538314 5.84193688 -15.8828125 6.67578125 C-15.8828125 8.98578125 -15.8828125 11.29578125 -15.8828125 13.67578125 C-15.38354248 13.9274707 -14.88427246 14.17916016 -14.36987305 14.43847656 C-12.09809588 15.5908694 -9.83427303 16.75811204 -7.5703125 17.92578125 C-6.78462891 18.32152344 -5.99894531 18.71726562 -5.18945312 19.125 C2.3429667 23.03544774 2.3429667 23.03544774 4.1171875 26.67578125 C4.86754075 31.19996999 4.66365103 35.39159196 2.8671875 39.61328125 C0.21386007 42.74041715 -1.98561841 44.37671655 -5.8828125 45.67578125 C-8.15044824 45.82226207 -10.42313616 45.89674385 -12.6953125 45.92578125 C-14.49935547 45.96445313 -14.49935547 45.96445313 -16.33984375 46.00390625 C-20.17269295 45.64893455 -22.57996277 44.59780712 -25.8828125 42.67578125 C-25.8828125 40.36578125 -25.8828125 38.05578125 -25.8828125 35.67578125 C-20.1328125 36.55078125 -20.1328125 36.55078125 -17.8828125 37.67578125 C-16.24138709 37.82218626 -14.5929984 37.89674714 -12.9453125 37.92578125 C-11.63240234 37.96445313 -11.63240234 37.96445313 -10.29296875 38.00390625 C-7.83244669 37.86727178 -7.83244669 37.86727178 -6.0625 36.31640625 C-4.63107139 34.67406516 -4.63107139 34.67406516 -4.9453125 32.17578125 C-6.13316979 29.0081618 -6.94567668 28.36463435 -9.8828125 26.67578125 C-11.35748788 26.01975744 -12.83718459 25.37496511 -14.3203125 24.73828125 C-18.5875302 22.90344794 -22.72175862 20.99788901 -24.8828125 16.67578125 C-25.29935549 12.1498814 -25.39354568 8.00936234 -23.7578125 3.73828125 C-17.99074394 -2.60549417 -7.66328024 -3.52012466 0 0 Z " fill="#3E47CB" transform="translate(540.8828125,58.32421875)"/>
<path d="M0 0 C0.69867188 0.55300781 1.39734375 1.10601562 2.1171875 1.67578125 C2.4296875 4.86328125 2.4296875 4.86328125 2.1171875 7.67578125 C0.84875 7.45921875 0.84875 7.45921875 -0.4453125 7.23828125 C-1.5796875 7.05265625 -2.7140625 6.86703125 -3.8828125 6.67578125 C-5.0584375 6.46953125 -6.2340625 6.26328125 -7.4453125 6.05078125 C-10.62573059 5.70382655 -12.82538314 5.84193688 -15.8828125 6.67578125 C-15.8828125 8.98578125 -15.8828125 11.29578125 -15.8828125 13.67578125 C-15.38354248 13.9274707 -14.88427246 14.17916016 -14.36987305 14.43847656 C-12.09809588 15.5908694 -9.83427303 16.75811204 -7.5703125 17.92578125 C-6.78462891 18.32152344 -5.99894531 18.71726562 -5.18945312 19.125 C2.3429667 23.03544774 2.3429667 23.03544774 4.1171875 26.67578125 C4.86754075 31.19996999 4.66365103 35.39159196 2.8671875 39.61328125 C0.21386007 42.74041715 -1.98561841 44.37671655 -5.8828125 45.67578125 C-8.15044824 45.82226207 -10.42313616 45.89674385 -12.6953125 45.92578125 C-14.49935547 45.96445313 -14.49935547 45.96445313 -16.33984375 46.00390625 C-20.17269295 45.64893455 -22.57996277 44.59780712 -25.8828125 42.67578125 C-25.8828125 40.36578125 -25.8828125 38.05578125 -25.8828125 35.67578125 C-20.1328125 36.55078125 -20.1328125 36.55078125 -17.8828125 37.67578125 C-16.24138709 37.82218626 -14.5929984 37.89674714 -12.9453125 37.92578125 C-11.63240234 37.96445313 -11.63240234 37.96445313 -10.29296875 38.00390625 C-7.83244669 37.86727178 -7.83244669 37.86727178 -6.0625 36.31640625 C-4.63107139 34.67406516 -4.63107139 34.67406516 -4.9453125 32.17578125 C-6.13316979 29.0081618 -6.94567668 28.36463435 -9.8828125 26.67578125 C-11.35748788 26.01975744 -12.83718459 25.37496511 -14.3203125 24.73828125 C-18.5875302 22.90344794 -22.72175862 20.99788901 -24.8828125 16.67578125 C-25.29935549 12.1498814 -25.39354568 8.00936234 -23.7578125 3.73828125 C-17.99074394 -2.60549417 -7.66328024 -3.52012466 0 0 Z " fill="#3E47CB" transform="translate(313.8828125,58.32421875)"/>
<path d="M0 0 C2.64 0 5.28 0 8 0 C8 21.45 8 42.9 8 65 C5.36 65 2.72 65 0 65 C0 43.55 0 22.1 0 0 Z " fill="#3E48CB" transform="translate(406,38)"/>
<path d="M0 0 C1 1 1 1 1.0625 4.5625 C1.041875 5.696875 1.02125 6.83125 1 8 C-2 9 -2 9 -5.3125 8.625 C-9.37015349 9.03621548 -9.37015349 9.03621548 -12.17578125 11.55859375 C-16.74651731 17.20568057 -15.89109698 24.54074702 -15.875 31.4375 C-15.89314814 32.85094849 -15.91395748 34.26436545 -15.9375 35.67773438 C-15.98906824 39.11866533 -16.00445073 42.55863263 -16 46 C-18.64 46 -21.28 46 -24 46 C-24 31.15 -24 16.3 -24 1 C-21.69 1 -19.38 1 -17 1 C-16.67 2.32 -16.34 3.64 -16 5 C-15.21625 4.175 -14.4325 3.35 -13.625 2.5 C-9.54536478 -0.96328745 -5.11218839 -0.67392314 0 0 Z " fill="#3E47CB" transform="translate(191,57)"/>
</svg>
