<?xml version="1.0" encoding="UTF-8"?>
<svg version="1.1" xmlns="http://www.w3.org/2000/svg" width="298" height="70">
<path d="M0 0 C2.31 0 4.62 0 7 0 C9.97919203 5.73770317 12.5261215 11.56461635 14.94921875 17.55859375 C15.77994165 19.9032606 15.77994165 19.9032606 17 21 C19.97 14.07 22.94 7.14 26 0 C28.31 0 30.62 0 33 0 C33 9.9 33 19.8 33 30 C31.68 30 30.36 30 29 30 C28.67 22.74 28.34 15.48 28 8 C25.03 15.26 22.06 22.52 19 30 C17.35 30 15.7 30 14 30 C10.59333439 22.78177819 7.64137374 15.53280659 5 8 C4.67 15.26 4.34 22.52 4 30 C2.68 30 1.36 30 0 30 C0 20.1 0 10.2 0 0 Z " fill="#3E47CB" transform="translate(14,22)"/>
<path d="M0 0 C1.98 0 3.96 0 6 0 C7.67760333 4.24576418 9.34017443 8.49725773 11 12.75 C11.47695312 13.9565625 11.95390625 15.163125 12.4453125 16.40625 C12.89648438 17.56640625 13.34765625 18.7265625 13.8125 19.921875 C14.23144531 20.99018555 14.65039062 22.05849609 15.08203125 23.15917969 C16 26 16 26 16 30 C14.35 30 12.7 30 11 30 C9.74335022 27.09399739 9 25.20395416 9 22 C5.04 22.33 1.08 22.66 -3 23 C-3.99 25.31 -4.98 27.62 -6 30 C-7.65 30 -9.3 30 -11 30 C-9.92444793 26.68492362 -8.83811307 23.37347264 -7.75 20.0625 C-7.44964844 19.13630859 -7.14929688 18.21011719 -6.83984375 17.25585938 C-4.88601191 11.33200753 -2.65537748 5.64485797 0 0 Z M2 6 C0.68 9.96 -0.64 13.92 -2 18 C0.97 18 3.94 18 7 18 C6.54965877 16.37276701 6.08944646 14.74826336 5.625 13.125 C5.36976563 12.22007813 5.11453125 11.31515625 4.8515625 10.3828125 C4.1395685 7.85430274 4.1395685 7.85430274 2 6 Z " fill="#3E47CB" transform="translate(177,22)"/>
<path d="M0 0 C1.65 0 3.3 0 5 0 C5.33 5.61 5.66 11.22 6 17 C7.98 15.02 9.96 13.04 12 11 C14.875 10.625 14.875 10.625 17 11 C15.33248852 14.94139078 12.77289351 17.7892812 10 21 C10.5775 21.69867188 11.155 22.39734375 11.75 23.1171875 C12.4925 24.02726562 13.235 24.93734375 14 25.875 C14.7425 26.77992187 15.485 27.68484375 16.25 28.6171875 C18 31 18 31 18 33 C15.73828125 33.25 15.73828125 33.25 13 33 C10.98046875 31.25 10.98046875 31.25 9.1875 29 C8.58292969 28.2575 7.97835937 27.515 7.35546875 26.75 C6.68451172 25.88375 6.68451172 25.88375 6 25 C5.67 27.64 5.34 30.28 5 33 C3.35 33 1.7 33 0 33 C0 22.11 0 11.22 0 0 Z " fill="#3E47CB" transform="translate(94,19)"/>
<path d="M0 0 C3.05227085 1.99331974 4.4637855 3.38798407 5.62109375 6.8671875 C6.59886602 12.04837254 5.54835324 15.44936921 3 20 C-0.32216238 22.21477492 -1.55033323 22.29667707 -5.4375 22.3125 C-6.38496094 22.32925781 -7.33242187 22.34601562 -8.30859375 22.36328125 C-11.42786993 21.94224688 -12.75919671 21.17955126 -15 19 C-16.44440034 14.66679898 -16.54168843 10.5285153 -16 6 C-11.98614318 -0.55596615 -7.25965875 -0.98165197 0 0 Z M-9.875 5 C-11.64629177 8.14896314 -11.54794453 11.47038329 -11 15 C-10.01 16.485 -10.01 16.485 -9 18 C-5.54250051 18.66676878 -5.54250051 18.66676878 -2 18 C0.20572041 16.01950153 0.20572041 16.01950153 1 13 C0.82238846 7.94306806 0.82238846 7.94306806 -2 4 C-5.03989923 3.67660646 -7.14368353 3.54329788 -9.875 5 Z " fill="#3E47CB" transform="translate(129,30)"/>
<path d="M0 0 C0.95648438 -0.03738281 1.91296875 -0.07476563 2.8984375 -0.11328125 C5.625 0.3125 5.625 0.3125 7.9609375 1.75390625 C10.46192981 5.5993287 10.05695038 9.08372134 9.875 13.5625 C9.85695313 14.40296875 9.83890625 15.2434375 9.8203125 16.109375 C9.77330798 18.17757395 9.70156724 20.24518441 9.625 22.3125 C7.18683415 22.3934723 4.75135616 22.45296972 2.3125 22.5 C1.27706055 22.53770508 1.27706055 22.53770508 0.22070312 22.57617188 C-4.86535815 22.64988291 -4.86535815 22.64988291 -7.328125 21.01953125 C-9.12521786 18.089197 -8.79028831 15.63480651 -8.375 12.3125 C-6.9375 10.375 -6.9375 10.375 -4.375 9.3125 C-1.35678886 9.08392635 1.60512655 9.13827653 4.625 9.3125 C4.295 7.9925 3.965 6.6725 3.625 5.3125 C-0.005 5.3125 -3.635 5.3125 -7.375 5.3125 C-7.375 3.9925 -7.375 2.6725 -7.375 1.3125 C-4.81683084 0.03341542 -2.85652006 0.07275319 0 0 Z M-3.375 14.3125 C-3.375 15.6325 -3.375 16.9525 -3.375 18.3125 C-1.58300528 19.09532648 -1.58300528 19.09532648 0.625 19.3125 C2.95183688 18.23404693 2.95183688 18.23404693 4.625 16.3125 C4.625 14.9925 4.625 13.6725 4.625 12.3125 C0.85812136 12.3125 -0.28690305 12.54787317 -3.375 14.3125 Z " fill="#3E47CB" transform="translate(61.375,29.6875)"/>
<path d="M0 0 C2.89768528 0.60780716 4.32091236 1.39908799 6.40234375 3.50390625 C7.21660697 6.52607549 7.21977976 9.35467737 7.40234375 12.50390625 C2.45234375 12.50390625 -2.49765625 12.50390625 -7.59765625 12.50390625 C-6.93765625 14.15390625 -6.27765625 15.80390625 -5.59765625 17.50390625 C0.48642847 17.70204886 0.48642847 17.70204886 6.40234375 16.50390625 C6.02734375 18.94140625 6.02734375 18.94140625 5.40234375 21.50390625 C1.47466781 23.46774422 -3.31539124 22.97900962 -7.59765625 22.50390625 C-10.25329427 20.60702195 -11.17008152 19.3590557 -12.59765625 16.50390625 C-13.19896066 11.72783124 -13.52024281 6.99648084 -10.72265625 2.87890625 C-6.89497797 -0.03012924 -4.67948861 -0.10815459 0 0 Z M-5.91015625 4.69140625 C-7.93836551 6.4571113 -7.93836551 6.4571113 -7.59765625 9.50390625 C-4.29765625 9.50390625 -0.99765625 9.50390625 2.40234375 9.50390625 C1.87589346 5.42643106 1.87589346 5.42643106 -0.91015625 4.06640625 C-3.61464429 3.20610245 -3.61464429 3.20610245 -5.91015625 4.69140625 Z " fill="#3E47CB" transform="translate(240.59765625,29.49609375)"/>
<path d="M0 0 C1.65 0 3.3 0 5 0 C5.34933594 0.92683594 5.69867188 1.85367187 6.05859375 2.80859375 C6.51363281 4.00613281 6.96867188 5.20367187 7.4375 6.4375 C8.11619141 8.22994141 8.11619141 8.22994141 8.80859375 10.05859375 C9.7144826 12.84445723 9.7144826 12.84445723 11 14 C12.65 9.38 14.3 4.76 16 0 C17.65 0 19.3 0 21 0 C20.35983027 5.13756468 18.80299667 9.58790181 16.9375 14.375 C16.65583984 15.11105469 16.37417969 15.84710938 16.08398438 16.60546875 C15.39433382 18.4055736 14.69786068 20.2030621 14 22 C12.02 22 10.04 22 8 22 C0 4.76595745 0 4.76595745 0 0 Z " fill="#3E47CB" transform="translate(205,30)"/>
<path d="M0 0 C0.90105469 0.02707031 1.80210937 0.05414062 2.73046875 0.08203125 C3.76107422 0.13423828 3.76107422 0.13423828 4.8125 0.1875 C5.1425 1.5075 5.4725 2.8275 5.8125 4.1875 C4.69875 4.14625 3.585 4.105 2.4375 4.0625 C-1.23116025 3.77628141 -1.23116025 3.77628141 -3.1875 6.1875 C-3.1875 6.8475 -3.1875 7.5075 -3.1875 8.1875 C-2.094375 8.455625 -1.00125 8.72375 0.125 9 C5.44789446 10.71415245 5.44789446 10.71415245 6.8125 13.1875 C6.6875 16.75 6.6875 16.75 5.8125 20.1875 C2.56167327 22.35471782 1.52017847 22.45971018 -2.25 22.4375 C-3.12785156 22.44265625 -4.00570313 22.4478125 -4.91015625 22.453125 C-7.1875 22.1875 -7.1875 22.1875 -9.1875 20.1875 C-9.1875 19.1975 -9.1875 18.2075 -9.1875 17.1875 C-5.8875 17.1875 -2.5875 17.1875 0.8125 17.1875 C1.1425 16.1975 1.4725 15.2075 1.8125 14.1875 C0.719375 13.919375 -0.37375 13.65125 -1.5 13.375 C-6.65251129 11.7157167 -6.65251129 11.7157167 -8.1875 9.1875 C-8.82597487 4.07970104 -8.82597487 4.07970104 -6.98828125 1.51171875 C-4.55932453 -0.27443381 -2.98027437 -0.11611459 0 0 Z " fill="#3E47CB" transform="translate(260.1875,29.8125)"/>
<path d="M0 0 C0 1.32 0 2.64 0 4 C-2.97 4 -5.94 4 -9 4 C-8.3342842 7.05861649 -8.3342842 7.05861649 -6.1875 8.1328125 C-5.465625 8.46023437 -4.74375 8.78765625 -4 9.125 C-0.05960265 10.94039735 -0.05960265 10.94039735 1 12 C1.46895799 18.3309329 1.46895799 18.3309329 -0.19921875 20.7109375 C-2.59747491 22.42769353 -4.13998781 22.33608283 -7.0625 22.25 C-7.94035156 22.23453125 -8.81820312 22.2190625 -9.72265625 22.203125 C-12 22 -12 22 -14 21 C-14 19.68 -14 18.36 -14 17 C-10.7 17 -7.4 17 -4 17 C-4.64196043 13.92201256 -4.64196043 13.92201256 -6.8125 13.04296875 C-7.534375 12.76066406 -8.25625 12.47835937 -9 12.1875 C-12.8395286 10.38513136 -12.8395286 10.38513136 -14.25 7 C-14 4 -14 4 -12.6875 1.625 C-8.60747672 -0.84199082 -4.65171024 -0.31958315 0 0 Z " fill="#3E47CB" transform="translate(152,30)"/>
<path d="M0 0 C1.65 0 3.3 0 5 0 C5 10.89 5 21.78 5 33 C3.35 33 1.7 33 0 33 C0 22.11 0 11.22 0 0 Z " fill="#3E47CB" transform="translate(197,19)"/>
<path d="M0 0 C2.475 0.495 2.475 0.495 5 1 C5.66 0.67 6.32 0.34 7 0 C8.99960012 -0.039992 11.00047242 -0.04346799 13 0 C13 1.32 13 2.64 13 4 C12.030625 4.309375 11.06125 4.61875 10.0625 4.9375 C7.15934208 5.69523342 7.15934208 5.69523342 6 7 C5.76346477 9.52596259 5.57826308 12.03107207 5.4375 14.5625 C5.39431641 15.27341797 5.35113281 15.98433594 5.30664062 16.71679688 C5.20028223 18.47761912 5.09961154 20.2387832 5 22 C3.35 22 1.7 22 0 22 C0 14.74 0 7.48 0 0 Z " fill="#3E47CB" transform="translate(77,30)"/>
</svg>
